<svg width="52" height="52" viewBox="0 0 52 52" fill="none" xmlns="http://www.w3.org/2000/svg">
<g clip-path="url(#clip0_42_2673)">
<path d="M32.5 16.25H29.25V19.5H32.5V16.25Z" fill="white"/>
<path d="M22.75 16.25H19.5V19.5H22.75V16.25Z" fill="white"/>
<path d="M42.2502 32.3H42.25H34.325V29.45H35.75H35.7502C36.6648 29.4489 37.5417 29.0852 38.1884 28.4384C38.8352 27.7917 39.199 26.9148 39.2 26.0002V26V19.7H42.25H42.45V19.5V16.25V16.05H42.25H39.2V13V12.9998C39.199 12.0852 38.8352 11.2083 38.1884 10.5616C37.5417 9.91484 36.6648 9.55105 35.7502 9.55H35.75H32.7V3.25V3.05H32.5H29.25H29.05V3.25V9.55H22.95V3.25V3.05H22.75H19.5H19.3V3.25V9.55L16.25 9.55L16.2498 9.55C15.3352 9.55105 14.4583 9.91484 13.8116 10.5616C13.1648 11.2083 12.801 12.0852 12.8 12.9998V13V16.05H9.75H9.55V16.25V19.5V19.7H9.75H12.8L12.8 26L12.8 26.0002C12.801 26.9148 13.1648 27.7917 13.8116 28.4384C14.4583 29.0852 15.3352 29.4489 16.2498 29.45H16.25H17.675V32.3H9.75H9.74977C8.83516 32.3011 7.9583 32.6648 7.31157 33.3116C6.66484 33.9583 6.30105 34.8352 6.3 35.7498V35.75V48.75V48.95H6.5H9.75H9.95V48.75V35.95H42.05V48.75V48.95H42.25H45.5H45.7V48.75V35.75V35.7498C45.699 34.8352 45.3352 33.9583 44.6884 33.3116C44.0417 32.6648 43.1648 32.3011 42.2502 32.3ZM16.45 13.2H35.55V25.8H16.45V13.2ZM21.325 29.45H30.675V32.3H21.325V29.45Z" fill="white" stroke="white" stroke-width="0.4"/>
</g>
<defs>
<clipPath id="clip0_42_2673">
<rect width="52" height="52" fill="white"/>
</clipPath>
</defs>
</svg>
