<svg width="52" height="52" viewBox="0 0 52 52" fill="none" xmlns="http://www.w3.org/2000/svg">
<path d="M26.65 3.25C20.4439 3.25 14.4921 5.71535 10.1037 10.1037C5.71535 14.4921 3.25 20.4439 3.25 26.65C3.25 32.8561 5.71535 38.8079 10.1037 43.1963C14.4921 47.5847 20.4439 50.05 26.65 50.05C32.8561 50.05 38.8079 47.5847 43.1963 43.1963C47.5847 38.8079 50.05 32.8561 50.05 26.65C50.05 20.4439 47.5847 14.4921 43.1963 10.1037C38.8079 5.71535 32.8561 3.25 26.65 3.25ZM6.136 28.418H12.662C12.766 30.784 13.0962 33.1344 13.65 35.438H8.034C6.98673 33.2303 6.34389 30.8527 6.136 28.418ZM28.418 14.378V6.344C30.9236 7.29618 32.9824 9.15102 34.19 11.544C34.723 12.4462 35.1936 13.3848 35.594 14.352L28.418 14.378ZM36.79 17.888C37.3932 20.1838 37.752 22.5368 37.856 24.908H28.418V17.888H36.79ZM24.882 6.344V14.378H17.706C18.1071 13.41 18.5763 12.4717 19.11 11.57C20.3124 9.16722 22.3719 7.30252 24.882 6.344ZM24.882 17.888V24.908H15.47C15.574 22.5368 15.9328 20.1838 16.536 17.888H24.882ZM12.662 24.882H6.136C6.34389 22.4473 6.98673 20.0697 8.034 17.862H13.65C13.0951 20.1647 12.7643 22.5156 12.662 24.882ZM15.47 28.418H24.882V35.438H16.536C15.9329 33.1424 15.5756 30.7892 15.47 28.418ZM24.908 38.818V46.852C22.4024 45.8998 20.3436 44.045 19.136 41.652C18.6023 40.7503 18.1331 39.812 17.732 38.844L24.908 38.818ZM28.418 46.852V38.948H35.594C35.1929 39.916 34.7237 40.8543 34.19 41.756C32.9824 44.149 30.9236 46.0038 28.418 46.956V46.852ZM28.418 35.308V28.288H37.83C37.7244 30.6592 37.3671 33.0124 36.764 35.308H28.418ZM40.664 28.288H47.19C46.9821 30.7227 46.3393 33.1003 45.292 35.308H39.65C40.196 33.046 40.5262 30.7398 40.638 28.418L40.664 28.288ZM40.664 24.778C40.5449 22.4544 40.2054 20.1474 39.65 17.888H45.266C46.3138 20.098 46.956 22.4744 47.164 24.908L40.664 24.778ZM43.264 14.378H38.61C37.7679 12.0128 36.5474 9.79999 34.996 7.826C38.2314 9.27831 41.0417 11.5337 43.16 14.378H43.264ZM18.304 7.826C16.7526 9.79999 15.5321 12.0128 14.69 14.378H10.14C12.2583 11.5337 15.0686 9.27831 18.304 7.826ZM10.114 39.026H14.69C15.5321 41.3912 16.7526 43.604 18.304 45.578C15.0597 44.1038 12.2485 41.8209 10.14 38.948L10.114 39.026ZM34.97 45.578C36.5214 43.604 37.7419 41.3912 38.584 39.026H43.16C41.0288 41.8322 38.2196 44.0509 34.996 45.474L34.97 45.578Z" fill="white"/>
</svg>
