<svg width="62" height="62" viewBox="0 0 62 62" fill="none" xmlns="http://www.w3.org/2000/svg">
<path d="M54.25 28.4167V23.25H49.0833V18.0833C49.0792 16.7143 48.5336 15.4025 47.5655 14.4345C46.5975 13.4664 45.2857 12.9208 43.9167 12.9167H38.75V7.75H33.5833V12.9167H28.4167V7.75H23.25V12.9167H18.0833C16.7143 12.9208 15.4025 13.4664 14.4345 14.4345C13.4664 15.4025 12.9208 16.7143 12.9167 18.0833V23.25H7.75V28.4167H12.9167V33.5833H7.75V38.75H12.9167V43.9167C12.9208 45.2857 13.4664 46.5975 14.4345 47.5655C15.4025 48.5336 16.7143 49.0792 18.0833 49.0833H23.25V54.25H28.4167V49.0833H33.5833V54.25H38.75V49.0833H43.9167C45.2857 49.0792 46.5975 48.5336 47.5655 47.5655C48.5336 46.5975 49.0792 45.2857 49.0833 43.9167V38.75H54.25V33.5833H49.0833V28.4167H54.25ZM43.9167 43.9167H18.0833V18.0833H43.9167V43.9167Z" fill="white"/>
<path d="M29.3492 20.6665H25.8746L20.6821 41.3332H23.3352L24.5339 36.4894H30.5169L31.6845 41.3332H34.428L29.3492 20.6665ZM24.8826 34.4202L27.5125 23.1207H27.6313L30.1707 34.4202H24.8826ZM36.797 20.6665H39.3803V41.3332H36.797V20.6665Z" fill="white"/>
</svg>
