<svg width="46" height="46" viewBox="0 0 46 46" fill="none" xmlns="http://www.w3.org/2000/svg">
<g clip-path="url(#clip0_42_2793)">
<path d="M16.0157 9.58333H13.4358L9.58333 24.9167H11.5537L12.443 21.3229H16.882L17.7483 24.9167H19.7838L16.0157 9.58333ZM12.7017 19.7838L14.651 11.4042H14.7373L16.6233 19.7857L12.7017 19.7838ZM21.5395 24.9167V9.58333H23.4562V24.9167H21.5395ZM21.8979 26.8333H7.66667V7.66667H26.8333V16.8283C29.1019 15.3634 31.8458 14.8242 34.5 15.3218V11.5H30.6667V7.66667C30.6636 6.65094 30.2588 5.67767 29.5406 4.95944C28.8223 4.24121 27.8491 3.83637 26.8333 3.83333H23V0H19.1667V3.83333H15.3333V0H11.5V3.83333H7.66667C6.65094 3.83637 5.67767 4.24121 4.95944 4.95944C4.24121 5.67767 3.83637 6.65094 3.83333 7.66667V11.5H0V15.3333H3.83333V19.1667H0V23H3.83333V26.8333C3.83637 27.8491 4.24121 28.8223 4.95944 29.5406C5.67767 30.2588 6.65094 30.6636 7.66667 30.6667H11.5V34.5H15.3333V30.6667H19.1667V34.5H23V30.682C22.3922 29.4805 22.0182 28.1744 21.8979 26.8333ZM25.875 25.875C25.875 24.5482 26.2684 23.2512 27.0056 22.148C27.7427 21.0449 28.7904 20.185 30.0162 19.6773C31.242 19.1696 32.5908 19.0367 33.8921 19.2956C35.1934 19.5544 36.3887 20.1933 37.3268 21.1315C38.265 22.0697 38.9039 23.265 39.1628 24.5663C39.4216 25.8676 39.2888 27.2164 38.781 28.4422C38.2733 29.668 37.4135 30.7157 36.3103 31.4528C35.2071 32.1899 33.9101 32.5833 32.5833 32.5833C31.7023 32.5836 30.8299 32.4102 30.0159 32.0732C29.2019 31.7362 28.4622 31.242 27.8393 30.6191C27.2163 29.9961 26.7222 29.2565 26.3851 28.4425C26.0481 27.6285 25.8747 26.756 25.875 25.875ZM32.5833 36.4167C28.106 36.4167 19.1667 38.6649 19.1667 43.125V46H46V43.125C46 38.663 37.0607 36.4167 32.5833 36.4167Z" fill="white"/>
</g>
<defs>
<clipPath id="clip0_42_2793">
<rect width="46" height="46" fill="white"/>
</clipPath>
</defs>
</svg>
