<svg width="52" height="52" viewBox="0 0 52 52" fill="none" xmlns="http://www.w3.org/2000/svg">
<path d="M30.5047 3.25C30.8488 3.25001 31.1839 3.35921 31.4619 3.56188C31.7399 3.76454 31.9465 4.05022 32.0517 4.37775L33.8392 9.932C34.59 10.2993 35.3082 10.712 35.994 11.1767L41.701 9.94825C42.0375 9.87641 42.3881 9.91323 42.7023 10.0534C43.0165 10.1936 43.2781 10.4299 43.4495 10.7283L47.954 18.525C48.126 18.8232 48.1988 19.1683 48.162 19.5106C48.1252 19.8529 47.9807 20.1747 47.7492 20.4295L43.833 24.752C43.89 25.5809 43.89 26.4126 43.833 27.2415L47.7492 31.5705C47.9807 31.8253 48.1252 32.1471 48.162 32.4894C48.1988 32.8317 48.126 33.1768 47.954 33.475L43.4495 41.275C43.2777 41.5728 43.0158 41.8084 42.7017 41.948C42.3875 42.0876 42.0371 42.1239 41.701 42.0518L35.994 40.8232C35.3115 41.2847 34.59 41.7008 33.8425 42.068L32.0517 47.6222C31.9465 47.9498 31.7399 48.2355 31.4619 48.4381C31.1839 48.6408 30.8488 48.75 30.5047 48.75H21.4957C21.1517 48.75 20.8165 48.6408 20.5385 48.4381C20.2605 48.2355 20.054 47.9498 19.9487 47.6222L18.1645 42.0713C17.4157 41.7051 16.6936 41.287 16.0032 40.82L10.2995 42.0518C9.96299 42.1236 9.61238 42.0868 9.29816 41.9466C8.98393 41.8064 8.72231 41.5701 8.55098 41.2718L4.04648 33.475C3.87447 33.1768 3.80161 32.8317 3.83841 32.4894C3.87521 32.1471 4.01977 31.8253 4.25123 31.5705L8.16748 27.2415C8.11075 26.4148 8.11075 25.5852 8.16748 24.7585L4.25123 20.4295C4.01977 20.1747 3.87521 19.8529 3.83841 19.5106C3.80161 19.1683 3.87447 18.8232 4.04648 18.525L8.55098 10.725C8.72279 10.4272 8.98461 10.1916 9.2988 10.052C9.61298 9.91245 9.96334 9.87611 10.2995 9.94825L16.0032 11.18C16.6922 10.7153 17.4137 10.296 18.1645 9.92875L19.952 4.37775C20.0569 4.05127 20.2624 3.76636 20.5391 3.56379C20.8159 3.36122 21.1496 3.25138 21.4925 3.25H30.5015H30.5047ZM29.3152 6.5H22.6852L20.8392 12.2428L19.5945 12.8505C18.9826 13.1499 18.3918 13.4909 17.8265 13.871L16.676 14.651L10.774 13.377L7.45898 19.123L11.5052 23.6015L11.4077 24.9795C11.361 25.659 11.361 26.341 11.4077 27.0205L11.5052 28.3985L7.45248 32.877L10.7707 38.623L16.6727 37.3522L17.8232 38.129C18.3886 38.5091 18.9793 38.8501 19.5912 39.1495L20.836 39.7572L22.6852 45.5H29.3217L31.1742 39.754L32.4157 39.1495C33.027 38.8508 33.6167 38.5098 34.1805 38.129L35.3277 37.3522L41.233 38.623L44.548 32.877L40.4985 28.3985L40.596 27.0205C40.6428 26.3399 40.6428 25.6569 40.596 24.9762L40.4985 23.5983L44.5512 19.123L41.233 13.377L35.3277 14.6445L34.1805 13.871C33.6167 13.4901 33.027 13.1491 32.4157 12.8505L31.1742 12.246L29.3185 6.5H29.3152ZM26.0002 16.25C28.5861 16.25 31.066 17.2772 32.8945 19.1057C34.723 20.9342 35.7502 23.4141 35.7502 26C35.7502 28.5859 34.723 31.0658 32.8945 32.8943C31.066 34.7228 28.5861 35.75 26.0002 35.75C23.4144 35.75 20.9344 34.7228 19.1059 32.8943C17.2775 31.0658 16.2502 28.5859 16.2502 26C16.2502 23.4141 17.2775 20.9342 19.1059 19.1057C20.9344 17.2772 23.4144 16.25 26.0002 16.25ZM26.0002 19.5C24.2763 19.5 22.623 20.1848 21.404 21.4038C20.185 22.6228 19.5002 24.2761 19.5002 26C19.5002 27.7239 20.185 29.3772 21.404 30.5962C22.623 31.8152 24.2763 32.5 26.0002 32.5C27.7241 32.5 29.3774 31.8152 30.5964 30.5962C31.8154 29.3772 32.5002 27.7239 32.5002 26C32.5002 24.2761 31.8154 22.6228 30.5964 21.4038C29.3774 20.1848 27.7241 19.5 26.0002 19.5Z" fill="white"/>
</svg>
