<svg width="30" height="30" viewBox="0 0 30 30" fill="none" xmlns="http://www.w3.org/2000/svg">
<path d="M14.715 4.68C16.1034 3.29896 17.9769 2.51571 19.9351 2.49763C21.8933 2.47956 23.7809 3.2281 25.1945 4.58329C26.6081 5.93848 27.4356 7.79282 27.5002 9.75003C27.5648 11.7073 26.8613 13.6121 25.54 15.0575L25.3038 15.3038L14.3038 26.3013L14.2588 26.3388C13.4023 27.1098 12.2903 27.5357 11.1379 27.534C9.98547 27.5323 8.87469 27.103 8.02059 26.3294C7.1665 25.5557 6.62983 24.4926 6.51449 23.346C6.39916 22.1994 6.71336 21.0508 7.39626 20.1225C7.42604 20.0649 7.46164 20.0104 7.50251 19.96L7.57001 19.885L7.67876 19.775L7.85501 19.59L7.85877 19.5938L17.1538 10.2763C17.3123 10.1173 17.5227 10.0205 17.7466 10.0036C17.9705 9.98658 18.193 10.0505 18.3738 10.1838L18.4788 10.275C18.6377 10.4336 18.7345 10.6439 18.7515 10.8678C18.7684 11.0917 18.7045 11.3143 18.5713 11.495L18.4813 11.6L8.98751 21.1163C8.54812 21.6554 8.32613 22.3393 8.36514 23.0337C8.40414 23.7281 8.70132 24.3828 9.19833 24.8693C9.69533 25.3558 10.3563 25.639 11.0513 25.6631C11.7464 25.6873 12.4254 25.4508 12.955 25L23.9963 13.9625C25.0193 12.9219 25.5982 11.5246 25.6107 10.0654C25.6232 8.60614 25.0684 7.19911 24.0633 6.14115C23.0582 5.08318 21.6814 4.45702 20.2235 4.39477C18.7655 4.33253 17.3404 4.83906 16.2488 5.8075L16.0388 6.0075L16.0238 6.025L4.10251 17.945C3.93523 18.1127 3.71065 18.2109 3.47392 18.2198C3.23719 18.2287 3.00587 18.1477 2.82646 17.993C2.64706 17.8383 2.53287 17.6214 2.50686 17.3859C2.48085 17.1505 2.54495 16.9139 2.68626 16.7238L2.77751 16.6188L14.7138 4.68125H14.715V4.68Z" fill="white"/>
</svg>
