<svg width="17" height="16" viewBox="0 0 17 16" fill="none" xmlns="http://www.w3.org/2000/svg">
<path d="M7.22223 7.19968H12.022C12.2342 7.19968 12.4377 7.1154 12.5877 6.96538C12.7377 6.81535 12.822 6.61188 12.822 6.39972C12.822 6.18755 12.7377 5.98408 12.5877 5.83406C12.4377 5.68403 12.2342 5.59975 12.022 5.59975H7.22223C7.01007 5.59975 6.80659 5.68403 6.65657 5.83406C6.50655 5.98408 6.42227 6.18755 6.42227 6.39972C6.42227 6.61188 6.50655 6.81535 6.65657 6.96538C6.80659 7.1154 7.01007 7.19968 7.22223 7.19968ZM4.02237 5.59975C3.86415 5.59975 3.70949 5.64667 3.57793 5.73457C3.44638 5.82247 3.34385 5.94741 3.2833 6.09358C3.22275 6.23976 3.20691 6.4006 3.23778 6.55578C3.26864 6.71096 3.34483 6.8535 3.45671 6.96538C3.56859 7.07725 3.71113 7.15344 3.86631 7.18431C4.02148 7.21518 4.18233 7.19934 4.3285 7.13879C4.47468 7.07824 4.59962 6.97571 4.68752 6.84415C4.77542 6.7126 4.82234 6.55793 4.82234 6.39972C4.82234 6.18755 4.73805 5.98408 4.58803 5.83406C4.43801 5.68403 4.23453 5.59975 4.02237 5.59975ZM4.02237 8.79961C3.86415 8.79961 3.70949 8.84653 3.57793 8.93443C3.44638 9.02233 3.34385 9.14727 3.2833 9.29344C3.22275 9.43962 3.20691 9.60046 3.23778 9.75564C3.26864 9.91082 3.34483 10.0534 3.45671 10.1652C3.56859 10.2771 3.71113 10.3533 3.86631 10.3842C4.02148 10.415 4.18233 10.3992 4.3285 10.3386C4.47468 10.2781 4.59962 10.1756 4.68752 10.044C4.77542 9.91246 4.82234 9.75779 4.82234 9.59958C4.82234 9.38741 4.73805 9.18394 4.58803 9.03391C4.43801 8.88389 4.23453 8.79961 4.02237 8.79961ZM8.02219 0C6.97167 0 5.93142 0.206917 4.96086 0.608937C3.9903 1.01096 3.10843 1.60021 2.36559 2.34304C0.865365 3.84327 0.0225481 5.87801 0.0225481 7.99965C0.0155547 9.84687 0.655154 11.6383 1.83047 13.0634L0.230539 14.6634C0.119538 14.7758 0.044344 14.9187 0.014446 15.0739C-0.0154519 15.2291 0.00128546 15.3896 0.0625463 15.5353C0.12899 15.6792 0.236702 15.8002 0.37201 15.8828C0.507318 15.9654 0.66412 16.006 0.822513 15.9993H8.02219C10.1438 15.9993 12.1786 15.1565 13.6788 13.6562C15.179 12.156 16.0218 10.1213 16.0218 7.99965C16.0218 5.87801 15.179 3.84327 13.6788 2.34304C12.1786 0.842817 10.1438 0 8.02219 0ZM8.02219 14.3994H2.75043L3.49439 13.6554C3.56998 13.5813 3.63012 13.493 3.67131 13.3955C3.71251 13.298 3.73394 13.1933 3.73438 13.0874C3.73138 12.8764 3.64512 12.6751 3.49439 12.5274C2.44691 11.4811 1.79461 10.104 1.64863 8.63065C1.50265 7.15732 1.87202 5.67895 2.69381 4.44742C3.5156 3.21589 4.73897 2.30738 6.15549 1.8767C7.57201 1.44601 9.09403 1.51978 10.4623 2.08544C11.8305 2.6511 12.9603 3.67366 13.6591 4.97889C14.3579 6.28413 14.5826 7.79129 14.2948 9.2436C14.007 10.6959 13.2246 12.0035 12.0808 12.9436C10.9371 13.8837 9.50274 14.3982 8.02219 14.3994ZM12.022 8.79961H7.22223C7.01007 8.79961 6.80659 8.88389 6.65657 9.03391C6.50655 9.18394 6.42227 9.38741 6.42227 9.59958C6.42227 9.81174 6.50655 10.0152 6.65657 10.1652C6.80659 10.3153 7.01007 10.3995 7.22223 10.3995H12.022C12.2342 10.3995 12.4377 10.3153 12.5877 10.1652C12.7377 10.0152 12.822 9.81174 12.822 9.59958C12.822 9.38741 12.7377 9.18394 12.5877 9.03391C12.4377 8.88389 12.2342 8.79961 12.022 8.79961Z" fill="white"/>
</svg>
