<svg width="52" height="52" viewBox="0 0 52 52" fill="none" xmlns="http://www.w3.org/2000/svg">
<mask id="mask0_42_2991" style="mask-type:luminance" maskUnits="userSpaceOnUse" x="3" y="3" width="46" height="47">
<path d="M15.1667 36.8333C18.1582 36.8333 20.5833 34.4082 20.5833 31.4167C20.5833 28.4251 18.1582 26 15.1667 26C12.1751 26 9.75 28.4251 9.75 31.4167C9.75 34.4082 12.1751 36.8333 15.1667 36.8333Z" fill="white" stroke="white" stroke-width="2.66667" stroke-linecap="round" stroke-linejoin="round"/>
<path d="M36.8327 36.8333C39.8242 36.8333 42.2493 34.4082 42.2493 31.4167C42.2493 28.4251 39.8242 26 36.8327 26C33.8411 26 31.416 28.4251 31.416 31.4167C31.416 34.4082 33.8411 36.8333 36.8327 36.8333Z" fill="white" stroke="white" stroke-width="2.66667" stroke-linecap="round" stroke-linejoin="round"/>
<path d="M25.9997 15.1668C28.9912 15.1668 31.4163 12.7417 31.4163 9.75016C31.4163 6.75862 28.9912 4.3335 25.9997 4.3335C23.0081 4.3335 20.583 6.75862 20.583 9.75016C20.583 12.7417 23.0081 15.1668 25.9997 15.1668Z" fill="white" stroke="white" stroke-width="2.66667" stroke-linecap="round" stroke-linejoin="round"/>
<path d="M4.33301 47.667C4.33301 41.6837 9.18309 36.8337 15.1663 36.8337C21.1496 36.8337 25.9997 41.6837 25.9997 47.667C25.9997 41.6837 30.8498 36.8337 36.833 36.8337C42.8163 36.8337 47.6663 41.6837 47.6663 47.667M36.833 26.0003C36.833 20.0171 31.9829 15.167 25.9997 15.167C20.0164 15.167 15.1663 20.0171 15.1663 26.0003" stroke="white" stroke-width="2.66667" stroke-linecap="round" stroke-linejoin="round"/>
</mask>
<g mask="url(#mask0_42_2991)">
<path d="M0 0H52V52H0V0Z" fill="white"/>
</g>
</svg>
