<svg width="52" height="52" viewBox="0 0 52 52" fill="none" xmlns="http://www.w3.org/2000/svg">
<path d="M10.8333 47.6668C9.64167 47.6668 8.62117 47.2422 7.77184 46.3928C6.9225 45.5435 6.49856 44.5237 6.5 43.3335V36.8335C6.5 35.6418 6.92467 34.6213 7.774 33.772C8.62334 32.9227 9.64311 32.4987 10.8333 32.5002H13V28.1668C13 26.9752 13.4247 25.9547 14.274 25.1053C15.1233 24.256 16.1431 23.8321 17.3333 23.8335H23.8333V19.5002H21.6667C20.475 19.5002 19.4545 19.0755 18.6052 18.2262C17.7558 17.3768 17.3319 16.3571 17.3333 15.1668V8.66683C17.3333 7.47517 17.758 6.45467 18.6073 5.60533C19.4567 4.756 20.4764 4.33206 21.6667 4.3335H30.3333C31.525 4.3335 32.5455 4.75817 33.3948 5.6075C34.2442 6.45683 34.6681 7.47661 34.6667 8.66683V15.1668C34.6667 16.3585 34.242 17.379 33.3927 18.2283C32.5433 19.0777 31.5236 19.5016 30.3333 19.5002H28.1667V23.8335H34.6667C35.8583 23.8335 36.8788 24.2582 37.7282 25.1075C38.5775 25.9568 39.0014 26.9766 39 28.1668V32.5002H41.1667C42.3583 32.5002 43.3788 32.9248 44.2282 33.7742C45.0775 34.6235 45.5014 35.6433 45.5 36.8335V43.3335C45.5 44.5252 45.0753 45.5457 44.226 46.395C43.3767 47.2443 42.3569 47.6683 41.1667 47.6668H32.5C31.3083 47.6668 30.2878 47.2422 29.4385 46.3928C28.5892 45.5435 28.1652 44.5237 28.1667 43.3335V36.8335C28.1667 35.6418 28.5913 34.6213 29.4407 33.772C30.29 32.9227 31.3098 32.4987 32.5 32.5002H34.6667V28.1668H17.3333V32.5002H19.5C20.6917 32.5002 21.7122 32.9248 22.5615 33.7742C23.4108 34.6235 23.8348 35.6433 23.8333 36.8335V43.3335C23.8333 44.5252 23.4087 45.5457 22.5593 46.395C21.71 47.2443 20.6902 47.6683 19.5 47.6668H10.8333ZM21.6667 15.1668H30.3333V8.66683H21.6667V15.1668ZM10.8333 43.3335H19.5V36.8335H10.8333V43.3335ZM32.5 43.3335H41.1667V36.8335H32.5V43.3335Z" fill="white"/>
</svg>
