<svg width="16" height="24" viewBox="0 0 16 24" fill="none" xmlns="http://www.w3.org/2000/svg">
<path d="M2.58333 23.9167C1.98749 23.9167 1.47724 23.7044 1.05257 23.2797C0.627908 22.855 0.415936 22.3452 0.416658 21.75V2.25004C0.416658 1.65421 0.628991 1.14396 1.05366 0.719293C1.47832 0.294626 1.98821 0.0826536 2.58333 0.0833759H13.4167C14.0125 0.0833759 14.5227 0.295709 14.9474 0.720376C15.3721 1.14504 15.584 1.65493 15.5833 2.25004V21.75C15.5833 22.3459 15.371 22.8561 14.9463 23.2808C14.5217 23.7055 14.0118 23.9174 13.4167 23.9167H2.58333ZM2.58333 18.5V21.75H13.4167V18.5H2.58333ZM7.99999 21.2084C8.30694 21.2084 8.56441 21.1044 8.77241 20.8964C8.98041 20.6884 9.08405 20.4313 9.08333 20.125C9.08333 19.8181 8.97933 19.5606 8.77133 19.3526C8.56333 19.1446 8.30621 19.041 7.99999 19.0417C7.69305 19.0417 7.43558 19.1457 7.22758 19.3537C7.01958 19.5617 6.91594 19.8188 6.91666 20.125C6.91666 20.432 7.02066 20.6895 7.22866 20.8975C7.43666 21.1055 7.69377 21.2091 7.99999 21.2084ZM2.58333 16.3334H13.4167V5.50004H2.58333V16.3334ZM2.58333 3.33338H13.4167V2.25004H2.58333V3.33338Z" fill="#3A3A3C"/>
</svg>
