<svg width="52" height="52" viewBox="0 0 52 52" fill="none" xmlns="http://www.w3.org/2000/svg">
<path d="M8.6665 21.6667V34.6667M43.3332 21.6667V34.6667M15.1665 19.5H36.8332M15.1665 19.5V36.8333C15.1665 37.408 15.3948 37.9591 15.8011 38.3654C16.2074 38.7717 16.7585 39 17.3332 39H34.6665C35.2411 39 35.7922 38.7717 36.1986 38.3654C36.6049 37.9591 36.8332 37.408 36.8332 36.8333V19.5M15.1665 19.5C15.1665 16.6268 16.3079 13.8713 18.3395 11.8397C20.3712 9.80803 23.1267 8.66667 25.9998 8.66667C28.873 8.66667 31.6285 9.80803 33.6602 11.8397C35.6918 13.8713 36.8332 16.6268 36.8332 19.5M17.3332 6.5L19.4998 10.8333M34.6665 6.5L32.4998 10.8333M19.4998 39V45.5M32.4998 39V45.5" stroke="white" stroke-width="4" stroke-linecap="round" stroke-linejoin="round"/>
</svg>
