<svg width="23" height="20" viewBox="0 0 23 20" fill="none" xmlns="http://www.w3.org/2000/svg">
<path fill-rule="evenodd" clip-rule="evenodd" d="M5.27032 12.1883C5.31687 12.2038 5.36473 12.215 5.41332 12.2219C5.71982 12.9441 6.0246 13.667 6.32765 14.3907C6.87257 15.6929 7.42182 17.034 7.54207 17.4197C7.69265 17.8942 7.85082 18.217 8.02415 18.438C8.11407 18.5507 8.21698 18.6504 8.33832 18.7262C8.40153 18.7657 8.46915 18.7977 8.53982 18.8215C8.88648 18.9515 9.20282 18.8974 9.40107 18.8313C9.51741 18.7916 9.62811 18.7369 9.7304 18.6688L9.73582 18.6666L12.7973 16.7578L16.3344 19.4683C16.3864 19.5084 16.4427 19.5419 16.5034 19.569C16.9281 19.7532 17.3397 19.8182 17.7276 19.7662C18.1132 19.712 18.4198 19.5506 18.6484 19.3675C18.9109 19.156 19.1201 18.8859 19.2594 18.5789L19.2692 18.555L19.2724 18.5464L19.2746 18.542V18.5399L19.2757 18.5388C19.2945 18.4922 19.309 18.444 19.319 18.3947L22.5473 2.11761C22.5575 2.06551 22.5626 2.01253 22.5625 1.95944C22.5625 1.48278 22.3827 1.02886 21.9612 0.754778C21.5994 0.519694 21.1975 0.508861 20.9429 0.528361C20.6699 0.550028 20.4164 0.617194 20.2463 0.671361C20.1511 0.701537 20.0571 0.735509 19.9647 0.773194L19.9527 0.778611L1.8459 7.88094L1.84373 7.88203C1.78247 7.90456 1.72212 7.9295 1.66282 7.95678C1.51924 8.02133 1.3815 8.09817 1.25115 8.18644C1.00523 8.35436 0.438651 8.81586 0.535068 9.57853C0.610901 10.1852 1.0269 10.5589 1.28148 10.7388C1.42015 10.8374 1.55232 10.9078 1.64982 10.9544C1.69315 10.976 1.78632 11.0129 1.8264 11.0302L1.83723 11.0334L5.27032 12.1883ZM20.5865 2.27361H20.5843C20.575 2.27775 20.5656 2.28172 20.5562 2.28553L2.42765 9.39761C2.41832 9.40138 2.40893 9.40499 2.39948 9.40844L2.38865 9.41169C2.35553 9.42471 2.323 9.43917 2.29115 9.45503C2.3213 9.4723 2.35241 9.48785 2.38432 9.50161L5.78815 10.6478C5.84898 10.6683 5.90716 10.6959 5.96148 10.7301L17.2032 4.14886L17.2141 4.14344C17.2577 4.11691 17.3026 4.09233 17.3484 4.06978C17.4264 4.02969 17.551 3.97119 17.6918 3.92786C17.7893 3.89753 18.0786 3.81194 18.3906 3.91269C18.5561 3.96486 18.7035 4.06251 18.8162 4.19449C18.9288 4.32648 19.0021 4.48748 19.0276 4.65911C19.0679 4.80943 19.069 4.96757 19.0308 5.11844C18.955 5.41636 18.747 5.64819 18.5563 5.82586C18.3938 5.97753 16.2867 8.00986 14.2078 10.0162L11.3771 12.7462L10.8733 13.2337L17.2347 18.1109C17.3205 18.1469 17.4138 18.1618 17.5066 18.1542C17.5533 18.1479 17.5973 18.1283 17.6333 18.0979C17.6772 18.0608 17.7149 18.0169 17.7449 17.9679L17.7471 17.9668L20.8779 2.17936C20.7793 2.20308 20.6826 2.23423 20.5887 2.27253L20.5865 2.27361ZM11.4204 15.7004L10.1507 14.7276L9.84307 16.683L11.4204 15.7004ZM8.98615 12.7971L10.2482 11.5784L13.079 8.8462L14.1331 7.83003L7.06973 11.9651L7.10765 12.0539C7.55312 13.1063 7.99368 14.1608 8.42932 15.2173L8.7359 13.2673C8.76364 13.0864 8.85186 12.9214 8.98615 12.7971Z" fill="#3A3A3C"/>
</svg>
